<svg width="33" height="30" viewBox="0 0 33 30" fill="none" xmlns="http://www.w3.org/2000/svg">
<path d="M20.0731 10.0489L14.7799 15.8203L12.9269 13.8007C12.7536 13.6117 12.5411 13.4556 12.3015 13.3412C12.0619 13.2269 11.7998 13.1566 11.5303 13.1343C11.2608 13.112 10.9891 13.1382 10.7307 13.2114C10.4724 13.2846 10.2324 13.4033 10.0245 13.5608C9.81656 13.7183 9.64482 13.9115 9.51905 14.1293C9.39327 14.3472 9.31592 14.5854 9.29142 14.8304C9.26692 15.0754 9.29574 15.3224 9.37625 15.5573C9.45675 15.7922 9.58735 16.0104 9.7606 16.1994L13.1968 19.9494C13.3899 20.1606 13.6318 20.3307 13.9053 20.4475C14.1788 20.5642 14.4773 20.6248 14.7794 20.625C15.0816 20.6252 15.3801 20.5649 15.6538 20.4485C15.9275 20.332 16.1696 20.1623 16.363 19.9512L23.2394 12.4512C23.4142 12.2624 23.5462 12.044 23.6279 11.8086C23.7096 11.5733 23.7394 11.3256 23.7156 11.0797C23.6917 10.8339 23.6147 10.5947 23.4889 10.376C23.3632 10.1573 23.1912 9.96328 22.9827 9.80515C22.7743 9.64701 22.5336 9.52784 22.2744 9.45448C22.0152 9.38112 21.7426 9.35501 21.4722 9.37766C21.2019 9.4003 20.9392 9.47125 20.6991 9.58643C20.459 9.70162 20.2462 9.85877 20.0731 10.0489Z" fill="#95DAF5"/>
<g clip-path="url(#clip0_55_1943)">
<path d="M19.64 10.7139L14.9884 16.2929L13.36 14.3406C13.2077 14.1579 13.021 14.007 12.8104 13.8964C12.5998 13.7859 12.3695 13.7179 12.1327 13.6964C11.8958 13.6749 11.6571 13.7002 11.43 13.771C11.2029 13.8417 10.992 13.9565 10.8093 14.1087C10.6266 14.261 10.4757 14.4477 10.3652 14.6583C10.2547 14.8689 10.1867 15.0992 10.1652 15.336C10.1436 15.5729 10.1689 15.8116 10.2397 16.0387C10.3104 16.2657 10.4252 16.4766 10.5775 16.6593L13.5971 20.2843C13.7668 20.4886 13.9794 20.6529 14.2198 20.7658C14.4601 20.8787 14.7224 20.9373 14.9879 20.9375C15.2535 20.9376 15.5158 20.8794 15.7563 20.7668C15.9968 20.6542 16.2096 20.4901 16.3796 20.2861L22.4225 13.0361C22.576 12.8536 22.6921 12.6425 22.7639 12.415C22.8357 12.1874 22.8619 11.948 22.8409 11.7103C22.82 11.4727 22.7523 11.2415 22.6418 11.0301C22.5313 10.8187 22.3801 10.6311 22.1969 10.4783C22.0138 10.3254 21.8022 10.2102 21.5744 10.1393C21.3466 10.0684 21.1071 10.0431 20.8695 10.065C20.6319 10.0869 20.401 10.1555 20.19 10.2668C19.979 10.3782 19.7921 10.5301 19.64 10.7139Z" fill="#95DAF5"/>
<path d="M16.5 1C13.6322 1 10.8288 1.85041 8.44424 3.44369C6.05973 5.03697 4.20122 7.30156 3.10375 9.95109C2.00628 12.6006 1.71913 15.5161 2.27862 18.3288C2.83811 21.1415 4.2191 23.7252 6.24696 25.753C8.27482 27.7809 10.8585 29.1619 13.6712 29.7214C16.4839 30.2809 19.3994 29.9937 22.0489 28.8962C24.6984 27.7988 26.963 25.9403 28.5563 23.5558C30.1496 21.1713 31 18.3678 31 15.5C30.9959 11.6556 29.4669 7.96986 26.7485 5.25147C24.0301 2.53308 20.3444 1.00409 16.5 1ZM16.5 26.375C14.3491 26.375 12.2466 25.7372 10.4582 24.5422C8.6698 23.3473 7.27592 21.6488 6.45282 19.6617C5.62971 17.6745 5.41435 15.4879 5.83397 13.3784C6.25358 11.2688 7.28932 9.33111 8.81022 7.81021C10.3311 6.28932 12.2689 5.25357 14.3784 4.83396C16.4879 4.41435 18.6745 4.62971 20.6617 5.45281C22.6488 6.27591 24.3473 7.66979 25.5422 9.45817C26.7372 11.2466 27.375 13.3491 27.375 15.5C27.3719 18.3833 26.2251 21.1475 24.1863 23.1863C22.1475 25.2251 19.3833 26.3719 16.5 26.375Z" fill="#95DAF5"/>
</g>
<defs>
<clipPath id="clip0_55_1943">
<rect width="29" height="29" fill="white" transform="translate(2 1)"/>
</clipPath>
</defs>
</svg>
