<svg width="24" height="24" viewBox="0 0 24 24" fill="none" xmlns="http://www.w3.org/2000/svg">
<path d="M11.99 2.163C15.194 2.163 15.574 2.175 16.84 2.233C20.092 2.381 21.611 3.924 21.759 7.152C21.817 8.417 21.828 8.797 21.828 12.001C21.828 15.206 21.816 15.585 21.759 16.85C21.61 20.075 20.095 21.621 16.84 21.769C15.574 21.827 15.196 21.839 11.99 21.839C8.78599 21.839 8.40599 21.827 7.14099 21.769C3.88099 21.62 2.36999 20.07 2.22199 16.849C2.16399 15.584 2.15199 15.205 2.15199 12C2.15199 8.796 2.16499 8.417 2.22199 7.151C2.37099 3.924 3.88599 2.38 7.14099 2.232C8.40699 2.175 8.78599 2.163 11.99 2.163ZM11.99 0C8.73099 0 8.32299 0.014 7.04299 0.072C2.68499 0.272 0.26299 2.69 0.0629902 7.052C0.00399023 8.333 -0.0100098 8.741 -0.0100098 12C-0.0100098 15.259 0.00399023 15.668 0.0619902 16.948C0.26199 21.306 2.67999 23.728 7.04199 23.928C8.32299 23.986 8.73099 24 11.99 24C15.249 24 15.658 23.986 16.938 23.928C21.292 23.728 23.72 21.31 23.917 16.948C23.976 15.668 23.99 15.259 23.99 12C23.99 8.741 23.976 8.333 23.918 7.053C23.722 2.699 21.301 0.273 16.939 0.073C15.658 0.014 15.249 0 11.99 0ZM11.99 5.838C8.58699 5.838 5.82799 8.597 5.82799 12C5.82799 15.403 8.58699 18.163 11.99 18.163C15.393 18.163 18.152 15.404 18.152 12C18.152 8.597 15.393 5.838 11.99 5.838ZM11.99 16C9.78099 16 7.98999 14.21 7.98999 12C7.98999 9.791 9.78099 8 11.99 8C14.199 8 15.99 9.791 15.99 12C15.99 14.21 14.199 16 11.99 16ZM18.396 4.155C17.6 4.155 16.955 4.8 16.955 5.595C16.955 6.39 17.6 7.035 18.396 7.035C19.191 7.035 19.835 6.39 19.835 5.595C19.835 4.8 19.191 4.155 18.396 4.155Z" fill="#FFEBEB"/>
</svg>
