<svg width="24" height="24" viewBox="0 0 24 24" fill="none" xmlns="http://www.w3.org/2000/svg">
<path d="M18.99 0H4.98999C2.22899 0 -0.0100098 2.239 -0.0100098 5V19C-0.0100098 21.761 2.22899 24 4.98999 24H18.99C21.752 24 23.99 21.761 23.99 19V5C23.99 2.239 21.752 0 18.99 0ZM7.98999 19H4.98999V8H7.98999V19ZM6.48999 6.732C5.52399 6.732 4.73999 5.942 4.73999 4.968C4.73999 3.994 5.52399 3.204 6.48999 3.204C7.45599 3.204 8.23999 3.994 8.23999 4.968C8.23999 5.942 7.45699 6.732 6.48999 6.732ZM19.99 19H16.99V13.396C16.99 10.028 12.99 10.283 12.99 13.396V19H9.98999V8H12.99V9.765C14.386 7.179 19.99 6.988 19.99 12.241V19Z" fill="#FFEBEB"/>
</svg>
