<svg width="47" height="87" viewBox="0 0 47 87" fill="none" xmlns="http://www.w3.org/2000/svg">
<path d="M10.0075 75.6457C8.9406 75.6457 8.01921 74.964 7.2433 73.6007C6.49972 72.178 6.12793 70.4886 6.12793 68.5325V18.7402C6.12793 16.784 6.49972 15.1243 7.2433 13.7609C8.01921 12.3383 8.9406 11.627 10.0075 11.627H37.1643C38.2312 11.627 39.1364 12.3383 39.88 13.7609C40.6559 15.1243 41.0438 16.784 41.0438 18.7402V68.5325C41.0438 70.4886 40.6559 72.178 39.88 73.6007C39.1364 74.964 38.2312 75.6457 37.1643 75.6457H10.0075ZM10.0075 68.5325H37.1643V18.7402H10.0075V68.5325ZM11.9472 61.4193H35.2245L27.9504 43.6363L22.1311 57.8627L17.7666 47.1929L11.9472 61.4193ZM10.0075 68.5325V18.7402V68.5325Z" fill="#1D1B20"/>
</svg>
