<svg width="157" height="165" viewBox="0 0 157 165" fill="none" xmlns="http://www.w3.org/2000/svg">
<path d="M75.7995 46.49L50.599 3.51902C49.9233 1.83518 48.1667 0.805176 46.275 0.805176H5.64674C1.27211 0.805176 -1.28848 5.89756 1.22144 9.59985L38.8196 65.0992C48.8423 55.4313 61.6115 48.7602 75.7995 46.49ZM86.7107 56.6887C53.8588 56.6887 27.2564 84.1939 27.2564 118.161C27.2564 152.127 53.8757 179.632 86.7107 179.632C119.546 179.632 146.165 152.127 146.165 118.161C146.165 84.1939 119.579 56.6887 86.7107 56.6887ZM117.958 111.629L105.162 124.552L108.16 142.802C108.709 146.033 105.373 148.565 102.542 146.993L86.7056 138.394L70.8675 146.976C68.0383 148.547 64.7025 146.015 65.2497 142.784L68.2478 124.535L55.4516 111.612C53.1325 109.289 54.45 105.238 57.6254 104.749L75.3198 102.085L83.2313 85.5037C83.9069 84.0193 85.3004 83.2771 86.6938 83.2771C88.0873 83.2771 89.4807 84.0367 90.1564 85.5037L98.0949 102.094L115.789 104.757C119.005 105.238 120.289 109.289 117.958 111.629ZM167.481 0.805176H127.146C125.248 0.805176 123.488 1.83518 122.512 3.51902L97.5949 46.1651C111.783 48.4354 124.579 55.1135 134.585 64.8093L172.183 9.30995C174.71 5.89756 172.143 0.805176 167.481 0.805176Z" fill="white" fill-opacity="0.08"/>
</svg>
