<svg width="61" height="41" viewBox="0 0 61 41" fill="none" xmlns="http://www.w3.org/2000/svg">
<path fill-rule="evenodd" clip-rule="evenodd" d="M3.63669 5.67061C3.63361 5.63626 3.64631 5.59554 3.69619 5.55391C3.74747 5.51113 3.83226 5.47505 3.94353 5.47505H14.8273C14.9385 5.47505 15.0233 5.51113 15.0746 5.55391C15.1245 5.59554 15.1371 5.63626 15.134 5.67061L14.6137 11.4724C13.3379 11.5151 11.5768 11.5538 9.38528 11.5538C7.19386 11.5538 5.43277 11.5151 4.15706 11.4724L3.63669 5.67061ZM2.30272 11.4096L1.7983 5.78562C1.70362 4.72995 2.76455 3.9353 3.94353 3.9353H14.8273C16.0063 3.9353 17.0672 4.72994 16.9724 5.78562L16.468 11.4096C17.1391 11.4688 17.6812 11.9409 17.6812 12.5315C17.6812 13.7413 16.5662 14.757 15.0977 14.8116C13.7832 14.8605 11.8535 14.9091 9.38528 14.9091C6.91707 14.9091 4.98733 14.8605 3.67294 14.8116C2.20429 14.757 1.08936 13.7413 1.08936 12.5315C1.08936 11.9408 1.63157 11.4687 2.30272 11.4096Z" fill="white"/>
</svg>
